<mxfile host="app.diagrams.net" modified="2024-02-29T08:44:56.425Z" agent="Mozilla/5.0 (Windows NT 10.0; Win64; x64) AppleWebKit/537.36 (KHTML, like Gecko) Chrome/122.0.0.0 Safari/537.36" version="23.1.7" etag="1oHQ5oeDkKeaxmYQ5SBX" type="github">
  <diagram name="第 1 页" id="u_vAOpGsMa_A65YqHHI3">
    <mxGraphModel>
      <root>
        <mxCell id="0" />
        <mxCell id="1" parent="0" />
      </root>
    </mxGraphModel>
  </diagram>
</mxfile>
